<svg width="200" height="55" viewBox="0 0 200 55" fill="none" xmlns="http://www.w3.org/2000/svg">
<path d="M130.915 17.5156V36H127.119V17.5156H130.915ZM136.603 17.5156V20.499H121.521V17.5156H136.603ZM143.674 36.2539C142.607 36.2539 141.651 36.0846 140.805 35.7461C139.958 35.3991 139.239 34.9209 138.646 34.3115C138.062 33.7021 137.614 32.9954 137.301 32.1914C136.988 31.3789 136.831 30.5156 136.831 29.6016V29.0938C136.831 28.0527 136.979 27.1006 137.275 26.2373C137.572 25.374 137.995 24.625 138.545 23.9902C139.104 23.3555 139.781 22.8688 140.576 22.5303C141.372 22.1833 142.269 22.0098 143.268 22.0098C144.241 22.0098 145.104 22.1706 145.857 22.4922C146.611 22.8138 147.241 23.2708 147.749 23.8633C148.265 24.4557 148.655 25.1667 148.917 25.9961C149.179 26.8171 149.311 27.7311 149.311 28.7383V30.2617H138.393V27.8242H145.718V27.5449C145.718 27.0371 145.625 26.5843 145.438 26.1865C145.261 25.7803 144.99 25.4587 144.626 25.2217C144.262 24.9847 143.797 24.8662 143.229 24.8662C142.747 24.8662 142.332 24.972 141.985 25.1836C141.638 25.3952 141.355 25.6914 141.135 26.0723C140.923 26.4531 140.762 26.9017 140.652 27.418C140.551 27.9258 140.5 28.4844 140.5 29.0938V29.6016C140.5 30.1517 140.576 30.6595 140.729 31.125C140.889 31.5905 141.114 31.9925 141.401 32.3311C141.698 32.6696 142.053 32.932 142.468 33.1182C142.891 33.3044 143.369 33.3975 143.902 33.3975C144.562 33.3975 145.176 33.2705 145.743 33.0166C146.319 32.7542 146.814 32.3607 147.229 31.8359L149.006 33.7656C148.718 34.1803 148.325 34.5781 147.825 34.959C147.334 35.3398 146.742 35.653 146.048 35.8984C145.354 36.1354 144.562 36.2539 143.674 36.2539ZM158.807 32.9023V26.7832C158.807 26.3431 158.735 25.9665 158.591 25.6533C158.447 25.3317 158.223 25.082 157.918 24.9043C157.622 24.7266 157.237 24.6377 156.763 24.6377C156.356 24.6377 156.005 24.7096 155.709 24.8535C155.413 24.9889 155.184 25.1878 155.023 25.4502C154.863 25.7041 154.782 26.0046 154.782 26.3516H151.126C151.126 25.7676 151.261 25.2132 151.532 24.6885C151.803 24.1637 152.197 23.7025 152.713 23.3047C153.229 22.8984 153.843 22.5811 154.554 22.3525C155.273 22.124 156.077 22.0098 156.966 22.0098C158.032 22.0098 158.98 22.1875 159.81 22.543C160.639 22.8984 161.291 23.4316 161.765 24.1426C162.247 24.8535 162.488 25.7422 162.488 26.8086V32.6865C162.488 33.4398 162.535 34.0576 162.628 34.54C162.721 35.014 162.856 35.4287 163.034 35.7842V36H159.34C159.162 35.6276 159.027 35.1621 158.934 34.6035C158.849 34.0365 158.807 33.4694 158.807 32.9023ZM159.289 27.6338L159.314 29.7031H157.271C156.788 29.7031 156.369 29.7581 156.014 29.8682C155.658 29.9782 155.366 30.1348 155.138 30.3379C154.909 30.5326 154.74 30.7611 154.63 31.0234C154.528 31.2858 154.478 31.5736 154.478 31.8867C154.478 32.1999 154.549 32.4834 154.693 32.7373C154.837 32.9827 155.045 33.1774 155.315 33.3213C155.586 33.4567 155.904 33.5244 156.268 33.5244C156.818 33.5244 157.296 33.4144 157.702 33.1943C158.108 32.9743 158.422 32.7035 158.642 32.3818C158.87 32.0602 158.989 31.7555 158.997 31.4678L159.962 33.0166C159.826 33.3636 159.64 33.7233 159.403 34.0957C159.175 34.4681 158.883 34.8193 158.527 35.1494C158.172 35.471 157.744 35.7376 157.245 35.9492C156.746 36.1523 156.153 36.2539 155.468 36.2539C154.596 36.2539 153.805 36.0804 153.094 35.7334C152.391 35.3779 151.833 34.8913 151.418 34.2734C151.012 33.6471 150.809 32.9362 150.809 32.1406C150.809 31.4212 150.944 30.7822 151.215 30.2236C151.486 29.665 151.883 29.1953 152.408 28.8145C152.941 28.4251 153.606 28.1331 154.401 27.9385C155.197 27.7354 156.119 27.6338 157.169 27.6338H159.289ZM168.963 25.1074V36H165.294V22.2637H168.734L168.963 25.1074ZM168.455 28.6494H167.439C167.439 27.693 167.554 26.8128 167.782 26.0088C168.019 25.1963 168.362 24.4938 168.811 23.9014C169.268 23.3005 169.83 22.835 170.499 22.5049C171.168 22.1748 171.942 22.0098 172.822 22.0098C173.432 22.0098 173.99 22.1029 174.498 22.2891C175.006 22.4668 175.442 22.7503 175.806 23.1396C176.178 23.5205 176.466 24.0199 176.669 24.6377C176.872 25.2471 176.974 25.9792 176.974 26.834V36H173.317V27.2402C173.317 26.6139 173.233 26.1315 173.063 25.793C172.894 25.4544 172.653 25.2174 172.34 25.082C172.035 24.9466 171.667 24.8789 171.235 24.8789C170.761 24.8789 170.347 24.9762 169.991 25.1709C169.644 25.3656 169.356 25.6364 169.128 25.9834C168.899 26.3219 168.73 26.7197 168.62 27.1768C168.51 27.6338 168.455 28.1247 168.455 28.6494ZM176.631 28.2305L175.323 28.3955C175.323 27.4984 175.433 26.6647 175.653 25.8945C175.882 25.1243 176.216 24.4473 176.656 23.8633C177.105 23.2793 177.659 22.8265 178.319 22.5049C178.979 22.1748 179.741 22.0098 180.604 22.0098C181.265 22.0098 181.866 22.1071 182.407 22.3018C182.949 22.488 183.41 22.7884 183.791 23.2031C184.18 23.6094 184.477 24.1426 184.68 24.8027C184.891 25.4629 184.997 26.2712 184.997 27.2275V36H181.328V27.2275C181.328 26.5928 181.243 26.1104 181.074 25.7803C180.913 25.4417 180.676 25.209 180.363 25.082C180.059 24.9466 179.695 24.8789 179.271 24.8789C178.831 24.8789 178.446 24.9678 178.116 25.1455C177.786 25.3148 177.511 25.5518 177.291 25.8564C177.071 26.1611 176.906 26.5166 176.796 26.9229C176.686 27.3206 176.631 27.7565 176.631 28.2305ZM195.255 32.2041C195.255 31.9417 195.179 31.7048 195.026 31.4932C194.874 31.2816 194.59 31.0869 194.176 30.9092C193.77 30.723 193.181 30.5537 192.411 30.4014C191.717 30.249 191.07 30.0586 190.469 29.8301C189.876 29.5931 189.36 29.3096 188.92 28.9795C188.488 28.6494 188.15 28.2601 187.904 27.8115C187.659 27.3545 187.536 26.834 187.536 26.25C187.536 25.6745 187.659 25.1328 187.904 24.625C188.158 24.1172 188.518 23.6686 188.983 23.2793C189.457 22.8815 190.033 22.5726 190.71 22.3525C191.396 22.124 192.166 22.0098 193.021 22.0098C194.214 22.0098 195.238 22.2002 196.093 22.5811C196.956 22.9619 197.616 23.4867 198.073 24.1553C198.539 24.8154 198.771 25.5687 198.771 26.415H195.115C195.115 26.0596 195.039 25.7422 194.887 25.4629C194.743 25.1751 194.514 24.9508 194.201 24.79C193.896 24.6208 193.499 24.5361 193.008 24.5361C192.602 24.5361 192.25 24.6081 191.954 24.752C191.658 24.8874 191.429 25.0736 191.269 25.3105C191.116 25.5391 191.04 25.793 191.04 26.0723C191.04 26.2839 191.082 26.4743 191.167 26.6436C191.26 26.8044 191.408 26.9525 191.611 27.0879C191.814 27.2233 192.077 27.3503 192.398 27.4688C192.729 27.5788 193.135 27.6803 193.617 27.7734C194.607 27.9766 195.492 28.2432 196.271 28.5732C197.049 28.8949 197.667 29.335 198.124 29.8936C198.581 30.4437 198.81 31.1673 198.81 32.0645C198.81 32.6738 198.674 33.2324 198.403 33.7402C198.132 34.248 197.743 34.6924 197.235 35.0732C196.728 35.4456 196.118 35.7376 195.407 35.9492C194.705 36.1523 193.913 36.2539 193.033 36.2539C191.755 36.2539 190.672 36.0254 189.783 35.5684C188.903 35.1113 188.234 34.5316 187.777 33.8291C187.329 33.1182 187.104 32.3903 187.104 31.6455H190.57C190.587 32.1449 190.714 32.5469 190.951 32.8516C191.197 33.1562 191.506 33.3763 191.878 33.5117C192.259 33.6471 192.669 33.7148 193.109 33.7148C193.583 33.7148 193.977 33.6514 194.29 33.5244C194.603 33.389 194.84 33.2113 195.001 32.9912C195.17 32.7627 195.255 32.5003 195.255 32.2041Z" fill="#31CF67"/>
<g filter="url(#filter0_d_819_271)">
<path d="M55.7002 17.5156V36H51.9043V17.5156H55.7002ZM67.7354 22.2637H71.0488V35.543C71.0488 36.7956 70.7695 37.8577 70.2109 38.7295C69.6608 39.6097 68.8906 40.2741 67.9004 40.7227C66.9102 41.1797 65.7591 41.4082 64.4473 41.4082C63.8717 41.4082 63.2624 41.332 62.6191 41.1797C61.9844 41.0273 61.375 40.7904 60.791 40.4688C60.2155 40.1471 59.7331 39.7409 59.3438 39.25L60.9561 37.0918C61.3792 37.5827 61.8701 37.9635 62.4287 38.2344C62.9873 38.5137 63.6051 38.6533 64.2822 38.6533C64.9424 38.6533 65.501 38.5306 65.958 38.2852C66.415 38.0482 66.7663 37.6969 67.0117 37.2314C67.2572 36.7744 67.3799 36.2201 67.3799 35.5684V25.4375L67.7354 22.2637ZM58.4932 29.2969V29.0303C58.4932 27.9808 58.6201 27.0286 58.874 26.1738C59.1364 25.3105 59.5046 24.57 59.9785 23.9521C60.4609 23.3343 61.0449 22.8561 61.7305 22.5176C62.416 22.179 63.1904 22.0098 64.0537 22.0098C64.9678 22.0098 65.7337 22.179 66.3516 22.5176C66.9694 22.8561 67.4772 23.3385 67.875 23.9648C68.2728 24.5827 68.5817 25.3148 68.8018 26.1611C69.0303 26.999 69.208 27.9173 69.335 28.916V29.5C69.208 30.4564 69.0176 31.3451 68.7637 32.166C68.5098 32.987 68.1755 33.7064 67.7607 34.3242C67.346 34.9336 66.8298 35.4076 66.2119 35.7461C65.6025 36.0846 64.8747 36.2539 64.0283 36.2539C63.182 36.2539 62.416 36.0804 61.7305 35.7334C61.0534 35.3864 60.4736 34.8997 59.9912 34.2734C59.5088 33.6471 59.1364 32.9108 58.874 32.0645C58.6201 31.2181 58.4932 30.2956 58.4932 29.2969ZM62.1494 29.0303V29.2969C62.1494 29.8639 62.2044 30.3929 62.3145 30.8838C62.4245 31.3747 62.5938 31.8105 62.8223 32.1914C63.0592 32.5638 63.3512 32.8558 63.6982 33.0674C64.0537 33.2705 64.4727 33.3721 64.9551 33.3721C65.6237 33.3721 66.1696 33.2324 66.5928 32.9531C67.016 32.6654 67.3333 32.2718 67.5449 31.7725C67.7565 31.2731 67.8792 30.6976 67.9131 30.0459V28.3828C67.8962 27.8496 67.8242 27.3714 67.6973 26.9482C67.5703 26.5166 67.3926 26.1484 67.1641 25.8438C66.9355 25.5391 66.6393 25.3021 66.2754 25.1328C65.9115 24.9635 65.4798 24.8789 64.9805 24.8789C64.498 24.8789 64.0791 24.9889 63.7236 25.209C63.3766 25.4206 63.0846 25.7126 62.8477 26.085C62.6191 26.4574 62.4456 26.8975 62.3271 27.4053C62.2087 27.9046 62.1494 28.4463 62.1494 29.0303ZM77.4727 25.1963V36H73.8164V22.2637H77.2441L77.4727 25.1963ZM76.9395 28.6494H75.9492C75.9492 27.6338 76.0804 26.7197 76.3428 25.9072C76.6051 25.0863 76.9733 24.388 77.4473 23.8125C77.9212 23.2285 78.484 22.7842 79.1357 22.4795C79.7959 22.1663 80.5322 22.0098 81.3447 22.0098C81.988 22.0098 82.5762 22.1029 83.1094 22.2891C83.6426 22.4753 84.0996 22.7715 84.4805 23.1777C84.8698 23.584 85.166 24.1214 85.3691 24.79C85.5807 25.4587 85.6865 26.2754 85.6865 27.2402V36H82.0049V27.2275C82.0049 26.6182 81.9202 26.1442 81.751 25.8057C81.5817 25.4671 81.332 25.2301 81.002 25.0947C80.6803 24.9508 80.2826 24.8789 79.8086 24.8789C79.3177 24.8789 78.8903 24.9762 78.5264 25.1709C78.1709 25.3656 77.8747 25.6364 77.6377 25.9834C77.4092 26.3219 77.2357 26.7197 77.1172 27.1768C76.9987 27.6338 76.9395 28.1247 76.9395 28.6494ZM92.3262 22.2637V36H88.6572V22.2637H92.3262ZM88.4287 18.6836C88.4287 18.1504 88.6149 17.7103 88.9873 17.3633C89.3597 17.0163 89.859 16.8428 90.4854 16.8428C91.1032 16.8428 91.5983 17.0163 91.9707 17.3633C92.3516 17.7103 92.542 18.1504 92.542 18.6836C92.542 19.2168 92.3516 19.6569 91.9707 20.0039C91.5983 20.3509 91.1032 20.5244 90.4854 20.5244C89.859 20.5244 89.3597 20.3509 88.9873 20.0039C88.6149 19.6569 88.4287 19.2168 88.4287 18.6836ZM102.076 22.2637V24.8535H94.0781V22.2637H102.076ZM96.0586 18.874H99.7148V31.8613C99.7148 32.2591 99.7656 32.5638 99.8672 32.7754C99.9772 32.987 100.138 33.1351 100.35 33.2197C100.561 33.2959 100.828 33.334 101.149 33.334C101.378 33.334 101.581 33.3255 101.759 33.3086C101.945 33.2832 102.102 33.2578 102.229 33.2324L102.241 35.9238C101.928 36.0254 101.59 36.1058 101.226 36.165C100.862 36.2243 100.46 36.2539 100.02 36.2539C99.2155 36.2539 98.513 36.1227 97.9121 35.8604C97.3197 35.5895 96.8626 35.1579 96.541 34.5654C96.2194 33.973 96.0586 33.1943 96.0586 32.2295V18.874ZM110.48 36.2539C109.414 36.2539 108.458 36.0846 107.611 35.7461C106.765 35.3991 106.046 34.9209 105.453 34.3115C104.869 33.7021 104.421 32.9954 104.107 32.1914C103.794 31.3789 103.638 30.5156 103.638 29.6016V29.0938C103.638 28.0527 103.786 27.1006 104.082 26.2373C104.378 25.374 104.801 24.625 105.352 23.9902C105.91 23.3555 106.587 22.8688 107.383 22.5303C108.178 22.1833 109.076 22.0098 110.074 22.0098C111.048 22.0098 111.911 22.1706 112.664 22.4922C113.417 22.8138 114.048 23.2708 114.556 23.8633C115.072 24.4557 115.461 25.1667 115.724 25.9961C115.986 26.8171 116.117 27.7311 116.117 28.7383V30.2617H105.199V27.8242H112.524V27.5449C112.524 27.0371 112.431 26.5843 112.245 26.1865C112.067 25.7803 111.797 25.4587 111.433 25.2217C111.069 24.9847 110.603 24.8662 110.036 24.8662C109.554 24.8662 109.139 24.972 108.792 25.1836C108.445 25.3952 108.161 25.6914 107.941 26.0723C107.73 26.4531 107.569 26.9017 107.459 27.418C107.357 27.9258 107.307 28.4844 107.307 29.0938V29.6016C107.307 30.1517 107.383 30.6595 107.535 31.125C107.696 31.5905 107.92 31.9925 108.208 32.3311C108.504 32.6696 108.86 32.932 109.274 33.1182C109.698 33.3044 110.176 33.3975 110.709 33.3975C111.369 33.3975 111.983 33.2705 112.55 33.0166C113.125 32.7542 113.62 32.3607 114.035 31.8359L115.812 33.7656C115.525 34.1803 115.131 34.5781 114.632 34.959C114.141 35.3398 113.549 35.653 112.854 35.8984C112.16 36.1354 111.369 36.2539 110.48 36.2539Z" fill="#FF8800"/>
</g>
<path d="M23.2147 51.062L23.2147 51.0619L23.204 51.0621C22.5693 51.072 21.9432 50.9159 21.3878 50.6094C21.3871 50.609 21.3864 50.6087 21.3857 50.6083L20.7697 50.2597L20.7694 50.2596C16.0141 47.5738 12.0581 43.6763 9.30524 38.9651C6.55243 34.2541 5.10136 28.8981 5.10014 23.4442C5.10014 23.4441 5.10014 23.4441 5.10014 23.4441V23.1552H5.10016L5.10012 23.1507C5.09436 22.5083 5.25954 21.8759 5.57885 21.3181C5.89773 20.761 6.35892 20.2982 6.91548 19.9769L21.3888 11.8443L21.3888 11.8444L21.3935 11.8416C21.9463 11.523 22.5734 11.3553 23.2118 11.3553C23.8502 11.3553 24.4773 11.523 25.0301 11.8416L25.0301 11.8417L25.0348 11.8443L39.5059 19.9756C39.5067 19.976 39.5075 19.9765 39.5082 19.977C40.0648 20.2982 40.5259 20.761 40.8448 21.3181C41.1641 21.8759 41.3293 22.5083 41.3235 23.1507V23.1552V23.4437C41.3182 28.9017 39.861 34.2604 37.1008 38.9719C34.3406 43.6834 30.3764 47.5786 25.6136 50.2592L25.6126 50.2597L24.9967 50.6082C24.9958 50.6087 24.995 50.6091 24.9942 50.6096C24.4497 50.9098 23.837 51.0656 23.2147 51.062Z" stroke="#00B37E"/>
<g clip-path="url(#clip0_819_271)">
<path d="M15.9031 9.18227C15.9671 9.13475 16.0146 9.06847 16.0389 8.99271C16.0632 8.91696 16.0631 8.83552 16.0386 8.75983C16.0141 8.68414 15.9664 8.61798 15.9023 8.57064C15.8382 8.5233 15.7608 8.49715 15.681 8.49585L14.1309 8.4375C14.1233 8.43698 14.116 8.43427 14.1099 8.4297C14.1038 8.42514 14.0991 8.41891 14.0965 8.41176L13.5608 6.97029C13.5339 6.89696 13.485 6.83363 13.4208 6.78889C13.3566 6.74415 13.2801 6.72015 13.2017 6.72015C13.1234 6.72015 13.0469 6.74415 12.9827 6.78889C12.9184 6.83363 12.8696 6.89696 12.8426 6.97029L12.3087 8.41691C12.3061 8.42406 12.3014 8.43029 12.2953 8.43485C12.2892 8.43942 12.2819 8.44213 12.2743 8.44265L10.7242 8.501C10.6444 8.5023 10.567 8.52845 10.5029 8.57579C10.4388 8.62313 10.3911 8.68929 10.3666 8.76498C10.3421 8.84067 10.342 8.9221 10.3663 8.99786C10.3906 9.07362 10.4381 9.1399 10.5021 9.18741L11.718 10.1398C11.7241 10.1446 11.7286 10.151 11.7311 10.1584C11.7335 10.1657 11.7338 10.1735 11.7318 10.181L11.3133 11.6585C11.2916 11.7337 11.2937 11.8138 11.3193 11.8878C11.3449 11.9618 11.3927 12.0262 11.4564 12.0721C11.52 12.1181 11.5962 12.1434 11.6748 12.1446C11.7534 12.1458 11.8304 12.1229 11.8954 12.0789L13.1802 11.2209C13.1865 11.2166 13.1941 11.2142 13.2017 11.2142C13.2094 11.2142 13.2169 11.2166 13.2233 11.2209L14.5081 12.0789C14.5722 12.1244 14.649 12.1488 14.7277 12.1488C14.8064 12.1488 14.8831 12.1244 14.9473 12.0789C15.0109 12.0334 15.0588 11.9694 15.0844 11.8956C15.11 11.8219 15.112 11.742 15.0902 11.6671L14.6683 10.1844C14.666 10.177 14.6662 10.169 14.6686 10.1617C14.6711 10.1543 14.6758 10.1479 14.682 10.1432L15.9031 9.18227Z" fill="#FBA94C"/>
</g>
<g clip-path="url(#clip1_819_271)">
<path d="M35.5372 9.18227C35.6012 9.13475 35.6487 9.06847 35.673 8.99271C35.6973 8.91696 35.6971 8.83552 35.6726 8.75983C35.6481 8.68414 35.6005 8.61798 35.5363 8.57064C35.4722 8.5233 35.3948 8.49715 35.315 8.49585L33.7649 8.4375C33.7573 8.43698 33.75 8.43427 33.7439 8.4297C33.7378 8.42514 33.7331 8.41891 33.7305 8.41176L33.1949 6.97029C33.168 6.89696 33.1191 6.83363 33.0549 6.78889C32.9906 6.74415 32.9141 6.72015 32.8358 6.72015C32.7574 6.72015 32.6809 6.74415 32.6167 6.78889C32.5525 6.83363 32.5036 6.89696 32.4767 6.97029L31.9428 8.41691C31.9401 8.42406 31.9355 8.43029 31.9294 8.43485C31.9233 8.43942 31.916 8.44213 31.9083 8.44265L30.3583 8.501C30.2785 8.5023 30.2011 8.52845 30.1369 8.57579C30.0728 8.62313 30.0251 8.68929 30.0006 8.76498C29.9761 8.84067 29.976 8.9221 30.0003 8.99786C30.0246 9.07362 30.0721 9.1399 30.1361 9.18741L31.352 10.1398C31.3581 10.1446 31.3627 10.151 31.3651 10.1584C31.3676 10.1657 31.3678 10.1735 31.3658 10.181L30.9473 11.6585C30.9256 11.7337 30.9277 11.8138 30.9533 11.8878C30.9789 11.9618 31.0268 12.0262 31.0904 12.0721C31.154 12.1181 31.2303 12.1434 31.3088 12.1446C31.3874 12.1458 31.4644 12.1229 31.5294 12.0789L32.8142 11.2209C32.8206 11.2166 32.8281 11.2142 32.8358 11.2142C32.8435 11.2142 32.851 11.2166 32.8573 11.2209L34.1421 12.0789C34.2063 12.1244 34.283 12.1488 34.3617 12.1488C34.4404 12.1488 34.5172 12.1244 34.5813 12.0789C34.6449 12.0334 34.6928 11.9694 34.7184 11.8956C34.744 11.8219 34.7461 11.742 34.7243 11.6671L34.3023 10.1844C34.3001 10.177 34.3002 10.169 34.3027 10.1617C34.3051 10.1543 34.3098 10.1479 34.3161 10.1432L35.5372 9.18227Z" fill="#FBA94C"/>
</g>
<g clip-path="url(#clip2_819_271)">
<path d="M26.5012 4.81326C26.5881 4.75018 26.6526 4.66218 26.6856 4.5616C26.7186 4.46102 26.7184 4.35291 26.6852 4.25242C26.6519 4.15192 26.5872 4.06409 26.5001 4.00124C26.4131 3.93839 26.308 3.90367 26.1996 3.90194L24.0953 3.82448C24.085 3.82378 24.0751 3.82019 24.0668 3.81412C24.0585 3.80806 24.0521 3.79979 24.0486 3.7903L23.3214 1.87653C23.2849 1.77917 23.2185 1.69509 23.1313 1.63569C23.0441 1.57629 22.9403 1.54443 22.8339 1.54443C22.7275 1.54443 22.6237 1.57629 22.5365 1.63569C22.4493 1.69509 22.383 1.77917 22.3464 1.87653L21.6216 3.79714C21.618 3.80662 21.6117 3.81489 21.6034 3.82096C21.5951 3.82702 21.5852 3.83062 21.5748 3.83131L19.4705 3.90878C19.3622 3.9105 19.2571 3.94522 19.17 4.00808C19.083 4.07093 19.0183 4.15876 18.985 4.25925C18.9518 4.35974 18.9516 4.46786 18.9846 4.56844C19.0176 4.66902 19.082 4.75702 19.1689 4.8201L20.8196 6.08455C20.8279 6.09089 20.8341 6.09945 20.8374 6.10916C20.8407 6.11888 20.841 6.12934 20.8383 6.13923L20.2702 8.10085C20.2407 8.20074 20.2436 8.30705 20.2783 8.4053C20.3131 8.50356 20.3781 8.58899 20.4644 8.64999C20.5508 8.71098 20.6543 8.74457 20.761 8.74619C20.8676 8.74781 20.9722 8.71738 21.0605 8.65904L22.8047 7.51989C22.8133 7.5141 22.8235 7.51101 22.8339 7.51101C22.8444 7.51101 22.8546 7.5141 22.8631 7.51989L24.6074 8.65904C24.6944 8.71937 24.7986 8.75179 24.9055 8.75179C25.0123 8.75179 25.1165 8.71937 25.2036 8.65904C25.29 8.59862 25.355 8.5136 25.3898 8.41568C25.4245 8.31776 25.4273 8.21175 25.3977 8.11224L24.8248 6.14379C24.8218 6.13391 24.822 6.12335 24.8253 6.11357C24.8286 6.10378 24.835 6.09524 24.8435 6.08911L26.5012 4.81326Z" fill="#FBA94C"/>
</g>
<path d="M23.2148 47.729L23.2148 47.7289L23.2041 47.729C22.675 47.7373 22.1532 47.6075 21.6903 47.3526C21.6895 47.3522 21.6888 47.3518 21.6881 47.3514L21.1628 47.0548L21.1625 47.0546C17.1143 44.7726 13.7467 41.4612 11.4034 37.4586C9.06008 33.456 7.82491 28.9057 7.82387 24.2722C7.82387 24.2722 7.82387 24.2721 7.82387 24.2721V24.026H7.82389L7.82385 24.0215C7.81905 23.4875 7.95663 22.9617 8.22265 22.4979C8.48825 22.0348 8.87244 21.6499 9.33624 21.3825L21.6911 14.4537L21.6911 14.4537L21.6959 14.451C22.1567 14.1859 22.6795 14.0463 23.2119 14.0463C23.7442 14.0463 24.2671 14.1859 24.7279 14.451L24.7279 14.451L24.7327 14.4537L37.0875 21.3825C37.5513 21.6499 37.9355 22.0348 38.2011 22.4979C38.4671 22.9617 38.6047 23.4875 38.5999 24.0215H38.5999V24.026V24.2717C38.5954 28.9087 37.355 33.4614 35.0054 37.4642C32.6558 41.4671 29.2813 44.7767 25.2266 47.0543L25.2257 47.0548L24.7005 47.3514C24.6998 47.3518 24.699 47.3522 24.6983 47.3526C24.2444 47.6024 23.7336 47.732 23.2148 47.729Z" stroke="#FBA94C"/>
<path fill-rule="evenodd" clip-rule="evenodd" d="M20.9734 38.4737C20.9734 38.1019 21.2758 37.8006 21.6489 37.8006H24.3511C24.7242 37.8006 25.0267 38.1019 25.0267 38.4737C25.0267 38.8454 24.7242 39.1468 24.3511 39.1468H21.6489C21.2758 39.1468 20.9734 38.8454 20.9734 38.4737Z" fill="#FBA94C"/>
<path fill-rule="evenodd" clip-rule="evenodd" d="M22.1511 20.7709C22.39 20.5746 22.6901 20.4671 23 20.4671C23.3109 20.4671 23.6121 20.5753 23.8514 20.773C24.6902 21.4536 26.506 23.141 27.5106 25.7428C28.5298 28.3824 28.6851 31.8928 26.2902 36.1126C26.1703 36.3238 25.9457 36.4544 25.7022 36.4544H20.2978C20.0564 36.4544 19.8333 36.326 19.7126 36.1176C17.2687 31.8968 17.4184 28.3813 18.4489 25.7377C19.4634 23.1354 21.3022 21.4484 22.1511 20.7709ZM22.9999 21.8183L22.9998 21.8184C22.2421 22.4223 20.6026 23.9312 19.7083 26.2251C18.854 28.4166 18.6518 31.3923 20.6929 35.1082H25.303C27.301 31.3937 27.0962 28.4187 26.2496 26.2262C25.3655 23.9362 23.7517 22.4286 22.9999 21.8183Z" fill="#00B37E"/>
<path fill-rule="evenodd" clip-rule="evenodd" d="M18.8645 28.4832C19.1509 28.7214 19.1892 29.1459 18.95 29.4312L16.3041 32.5882C16.3042 32.5889 16.3044 32.5896 16.3045 32.5904L17.3427 37.2747L19.8757 35.2557C20.167 35.0234 20.5922 35.0705 20.8252 35.3608C21.0583 35.6511 21.0111 36.0746 20.7197 36.3069L18.1864 38.3262C18.0074 38.4687 17.7946 38.5638 17.5687 38.6019C17.3428 38.6401 17.1108 38.6204 16.8946 38.5447C16.6784 38.469 16.4851 38.3397 16.3329 38.1691C16.1807 37.9984 16.0745 37.792 16.0244 37.5692L16.0239 37.5671L14.987 32.8885C14.9383 32.6883 14.9376 32.4795 14.985 32.2789C15.0328 32.0762 15.1284 31.8878 15.2638 31.7292L17.913 28.5683C18.1522 28.283 18.5782 28.2449 18.8645 28.4832Z" fill="#00B37E"/>
<path fill-rule="evenodd" clip-rule="evenodd" d="M27.0852 28.4154C27.3719 28.1774 27.7978 28.216 28.0367 28.5016L30.7364 31.7295C30.8716 31.888 30.9671 32.0763 31.0149 32.2789C31.0623 32.4795 31.0616 32.6883 31.0129 32.8885L29.976 37.5671L29.9755 37.5692C29.9254 37.792 29.8192 37.9984 29.667 38.1691C29.5148 38.3397 29.3215 38.469 29.1053 38.5447C28.8891 38.6204 28.6571 38.6401 28.4312 38.6019C28.2053 38.5637 27.9928 38.4689 27.8138 38.3264L25.2802 36.3069C24.9888 36.0746 24.9416 35.6511 25.1747 35.3608C25.4077 35.0705 25.8329 35.0234 26.1242 35.2557L28.6572 37.2747L29.6954 32.5903C29.6955 32.5896 29.6957 32.5889 29.6958 32.5882L26.9987 29.3634C26.7599 29.0778 26.7986 28.6534 27.0852 28.4154Z" fill="#00B37E"/>
<path d="M22.9999 28.7137C23.5595 28.7137 24.0132 28.2617 24.0132 27.7041C24.0132 27.1465 23.5595 26.6944 22.9999 26.6944C22.4403 26.6944 21.9866 27.1465 21.9866 27.7041C21.9866 28.2617 22.4403 28.7137 22.9999 28.7137Z" fill="#FBA94C"/>
<defs>
<filter id="filter0_d_819_271" x="48.9043" y="13.8428" width="70.2129" height="30.5654" filterUnits="userSpaceOnUse" color-interpolation-filters="sRGB">
<feFlood flood-opacity="0" result="BackgroundImageFix"/>
<feColorMatrix in="SourceAlpha" type="matrix" values="0 0 0 0 0 0 0 0 0 0 0 0 0 0 0 0 0 0 127 0" result="hardAlpha"/>
<feOffset/>
<feGaussianBlur stdDeviation="1.5"/>
<feComposite in2="hardAlpha" operator="out"/>
<feColorMatrix type="matrix" values="0 0 0 0 0 0 0 0 0 0 0 0 0 0 0 0 0 0 0.8 0"/>
<feBlend mode="normal" in2="BackgroundImageFix" result="effect1_dropShadow_819_271"/>
<feBlend mode="normal" in="SourceGraphic" in2="effect1_dropShadow_819_271" result="shape"/>
</filter>
<clipPath id="clip0_819_271">
<rect width="6.2002" height="6.17774" fill="white" transform="translate(10.0474 6.30275)"/>
</clipPath>
<clipPath id="clip1_819_271">
<rect width="6.2002" height="6.17774" fill="white" transform="translate(29.6814 6.30275)"/>
</clipPath>
<clipPath id="clip2_819_271">
<rect width="10.3337" height="10.2962" fill="white" transform="translate(17.7976)"/>
</clipPath>
</defs>
</svg>
