<svg width="200" height="240" viewBox="0 0 200 240" fill="none" xmlns="http://www.w3.org/2000/svg">
<path d="M100.934 222.009L100.91 222.009L100.887 222.009C98.1277 222.052 95.4055 221.374 92.9908 220.041C92.9876 220.039 92.9845 220.038 92.9813 220.036L90.3028 218.521L90.3015 218.52C69.6264 206.842 52.4264 189.897 40.4575 169.414C28.4888 148.931 22.1798 125.644 22.1745 101.931C22.1745 101.931 22.1745 101.931 22.1745 101.931L22.1745 100.675V100.665L22.1744 100.655C22.1494 97.8622 22.8676 95.1126 24.2559 92.6873C25.6422 90.2652 27.6474 88.2531 30.0671 86.8561L92.9947 51.4971L93.0051 51.4913L93.0153 51.4853C95.4187 50.1001 98.1453 49.3707 100.921 49.3707C103.697 49.3707 106.423 50.1001 108.826 51.4853L108.837 51.4913L108.847 51.4971L171.765 86.8503C171.768 86.8523 171.772 86.8543 171.775 86.8563C174.195 88.2532 176.2 90.2653 177.586 92.6873C178.974 95.1126 179.692 97.8622 179.667 100.655L179.667 100.665V100.675V101.929C179.644 125.659 173.309 148.958 161.308 169.443C149.307 189.928 132.071 206.863 111.363 218.518L111.359 218.521L108.681 220.036C108.678 220.037 108.675 220.039 108.672 220.041C106.304 221.347 103.639 222.024 100.934 222.009Z" stroke="#00B37E" stroke-width="4.34783"/>
<path d="M69.1441 39.9229C69.4224 39.7163 69.6288 39.4281 69.7345 39.0987C69.8401 38.7694 69.8396 38.4153 69.7331 38.0862C69.6266 37.7571 69.4194 37.4695 69.1405 37.2637C68.8616 37.0578 68.5251 36.9441 68.1781 36.9385L61.4388 36.6848C61.4056 36.6825 61.3739 36.6707 61.3473 36.6509C61.3207 36.631 61.3005 36.6039 61.289 36.5729L58.9602 30.3056C58.8432 29.9868 58.6307 29.7114 58.3514 29.5169C58.0721 29.3224 57.7396 29.218 57.3989 29.218C57.0582 29.218 56.7257 29.3224 56.4464 29.5169C56.1671 29.7114 55.9546 29.9868 55.8376 30.3056L53.5163 36.5953C53.5048 36.6263 53.4846 36.6534 53.458 36.6733C53.4314 36.6931 53.3997 36.7049 53.3665 36.7072L46.6272 36.9609C46.2802 36.9665 45.9436 37.0802 45.6648 37.286C45.3859 37.4919 45.1787 37.7795 45.0722 38.1086C44.9657 38.4377 44.9652 38.7917 45.0708 39.1211C45.1764 39.4505 45.3829 39.7387 45.6612 39.9453L50.9478 44.0861C50.9743 44.1069 50.9941 44.1349 51.0047 44.1667C51.0154 44.1986 51.0164 44.2328 51.0077 44.2652L49.1881 50.6892C49.0938 51.0163 49.103 51.3644 49.2143 51.6862C49.3256 52.0079 49.5337 52.2877 49.8103 52.4875C50.0868 52.6872 50.4185 52.7972 50.76 52.8025C51.1015 52.8078 51.4364 52.7082 51.7191 52.5171L57.3053 48.7866C57.3328 48.7677 57.3655 48.7575 57.3989 48.7575C57.4323 48.7575 57.465 48.7677 57.4925 48.7866L63.0787 52.5171C63.3575 52.7147 63.6912 52.8209 64.0334 52.8209C64.3756 52.8209 64.7093 52.7147 64.9882 52.5171C65.2648 52.3192 65.4731 52.0408 65.5844 51.7202C65.6957 51.3995 65.7045 51.0523 65.6097 50.7265L63.7751 44.2801C63.7653 44.2478 63.7659 44.2132 63.7766 44.1812C63.7873 44.1491 63.8077 44.1211 63.835 44.1011L69.1441 39.9229Z" fill="#FBA94C"/>
<path d="M154.509 39.9229C154.788 39.7163 154.994 39.4281 155.1 39.0987C155.205 38.7694 155.205 38.4153 155.098 38.0862C154.992 37.7571 154.785 37.4695 154.506 37.2637C154.227 37.0578 153.89 36.9441 153.543 36.9385L146.804 36.6848C146.771 36.6825 146.739 36.6707 146.713 36.6509C146.686 36.631 146.666 36.6039 146.654 36.5729L144.326 30.3056C144.209 29.9868 143.996 29.7114 143.717 29.5169C143.437 29.3224 143.105 29.218 142.764 29.218C142.424 29.218 142.091 29.3224 141.812 29.5169C141.532 29.7114 141.32 29.9868 141.203 30.3056L138.882 36.5953C138.87 36.6263 138.85 36.6534 138.823 36.6733C138.797 36.6931 138.765 36.7049 138.732 36.7072L131.993 36.9609C131.646 36.9665 131.309 37.0802 131.03 37.286C130.751 37.4919 130.544 37.7795 130.438 38.1086C130.331 38.4377 130.331 38.7917 130.436 39.1211C130.542 39.4505 130.748 39.7387 131.027 39.9453L136.313 44.0861C136.34 44.1069 136.359 44.1349 136.37 44.1667C136.381 44.1986 136.382 44.2328 136.373 44.2652L134.553 50.6892C134.459 51.0163 134.468 51.3644 134.58 51.6862C134.691 52.0079 134.899 52.2877 135.176 52.4875C135.452 52.6872 135.784 52.7972 136.125 52.8025C136.467 52.8078 136.802 52.7082 137.084 52.5171L142.671 48.7866C142.698 48.7677 142.731 48.7575 142.764 48.7575C142.798 48.7575 142.83 48.7677 142.858 48.7866L148.444 52.5171C148.723 52.7147 149.057 52.8209 149.399 52.8209C149.741 52.8209 150.075 52.7147 150.354 52.5171C150.63 52.3192 150.838 52.0408 150.95 51.7202C151.061 51.3995 151.07 51.0523 150.975 50.7265L149.14 44.2801C149.131 44.2478 149.131 44.2132 149.142 44.1812C149.153 44.1491 149.173 44.1211 149.2 44.1011L154.509 39.9229Z" fill="#FBA94C"/>
<g clip-path="url(#clip0_904_287)">
<path d="M115.223 20.9272C115.601 20.653 115.881 20.2704 116.024 19.8331C116.168 19.3958 116.167 18.9257 116.022 18.4888C115.878 18.0518 115.596 17.67 115.218 17.3967C114.839 17.1234 114.382 16.9725 113.911 16.965L104.762 16.6282C104.717 16.6251 104.674 16.6095 104.638 16.5832C104.602 16.5568 104.575 16.5208 104.559 16.4796L101.397 8.15884C101.239 7.73551 100.95 7.36997 100.571 7.1117C100.192 6.85344 99.7404 6.71494 99.2779 6.71494C98.8153 6.71494 98.3639 6.85344 97.9848 7.1117C97.6057 7.36997 97.3172 7.73551 97.1583 8.15884L94.0069 16.5093C93.9914 16.5505 93.9639 16.5865 93.9278 16.6129C93.8917 16.6392 93.8486 16.6549 93.8036 16.6579L84.6545 16.9947C84.1834 17.0022 83.7266 17.1532 83.348 17.4264C82.9694 17.6997 82.6881 18.0816 82.5435 18.5185C82.3989 18.9554 82.3982 19.4255 82.5416 19.8628C82.685 20.3001 82.9653 20.6827 83.3431 20.9569L90.5201 26.4546C90.556 26.4821 90.5829 26.5193 90.5973 26.5616C90.6118 26.6038 90.6132 26.6493 90.6014 26.6923L88.1312 35.2211C88.0032 35.6554 88.0156 36.1176 88.1667 36.5448C88.3178 36.972 88.6003 37.3434 88.9758 37.6086C89.3513 37.8738 89.8014 38.0199 90.2651 38.0269C90.7288 38.034 91.1834 37.9017 91.5672 37.648L99.1508 32.6952C99.1881 32.67 99.2325 32.6566 99.2779 32.6566C99.3233 32.6566 99.3676 32.67 99.4049 32.6952L106.989 37.648C107.367 37.9103 107.82 38.0513 108.285 38.0513C108.749 38.0513 109.202 37.9103 109.581 37.648C109.956 37.3853 110.239 37.0156 110.39 36.5899C110.541 36.1642 110.553 35.7033 110.425 35.2706L107.934 26.7121C107.921 26.6692 107.921 26.6233 107.936 26.5807C107.951 26.5382 107.978 26.5011 108.015 26.4744L115.223 20.9272Z" fill="#FBA94C"/>
</g>
<path d="M100.934 207.517L100.911 207.517L100.887 207.518C98.5872 207.553 96.3181 206.989 94.3055 205.881C94.3023 205.879 94.2991 205.878 94.2959 205.876L92.0121 204.586L92.0108 204.585C74.41 194.664 59.7683 180.266 49.5799 162.863C39.3916 145.461 34.0213 125.677 34.0168 105.531C34.0168 105.531 34.0168 105.531 34.0168 105.531V104.461V104.451L34.0167 104.441C33.9959 102.12 34.594 99.8336 35.7506 97.8168C36.9055 95.8032 38.5759 94.1297 40.5925 92.9675L94.3092 62.8422L94.3196 62.8364L94.3299 62.8305C96.3334 61.6779 98.6067 61.0709 100.921 61.0709C103.236 61.0709 105.509 61.6779 107.513 62.8305L107.523 62.8364L107.533 62.8422L161.24 92.9619C161.244 92.9638 161.247 92.9658 161.25 92.9677C163.267 94.1299 164.937 95.8034 166.092 97.8168C167.248 99.8336 167.847 102.12 167.826 104.441L167.826 104.451V104.461V105.529C167.806 125.69 162.413 145.484 152.198 162.888C141.982 180.292 127.31 194.681 109.681 204.584L109.677 204.586L107.394 205.876C107.39 205.877 107.387 205.879 107.384 205.881C105.41 206.967 103.19 207.53 100.934 207.517Z" stroke="#FBA94C" stroke-width="4.34783"/>
<path fill-rule="evenodd" clip-rule="evenodd" d="M91.1886 167.277C91.1886 165.661 92.5036 164.35 94.1258 164.35H105.874C107.497 164.35 108.812 165.661 108.812 167.277C108.812 168.893 107.497 170.203 105.874 170.203H94.1258C92.5036 170.203 91.1886 168.893 91.1886 167.277Z" fill="#FBA94C"/>
<path fill-rule="evenodd" clip-rule="evenodd" d="M96.3089 90.3084C97.3477 89.4548 98.6526 88.9875 99.9999 88.9875C101.352 88.9875 102.661 89.4581 103.702 90.3174C107.349 93.2767 115.244 100.613 119.611 111.925C124.043 123.402 124.718 138.664 114.305 157.011C113.784 157.93 112.807 158.497 111.749 158.497H88.2512C87.2015 158.497 86.2316 157.939 85.7071 157.033C75.0813 138.682 75.732 123.397 80.2127 111.903C84.6233 100.589 92.6182 93.2539 96.3089 90.3084ZM99.9998 94.862L99.999 94.8626C96.7048 97.4884 89.5764 104.049 85.6884 114.022C81.974 123.551 81.0948 136.488 89.9693 152.644H110.013C118.7 136.494 117.81 123.559 114.129 114.027C110.285 104.071 103.268 97.5157 99.9998 94.862Z" fill="#00B37E"/>
<path fill-rule="evenodd" clip-rule="evenodd" d="M82.0197 123.84C83.2648 124.876 83.4312 126.721 82.3914 127.962L70.8872 141.688C70.8879 141.691 70.8886 141.694 70.8893 141.697L75.4031 162.064L86.4161 153.285C87.6828 152.276 89.5311 152.48 90.5445 153.743C91.5578 155.005 91.3524 156.846 90.0858 157.856L79.0714 166.635C78.293 167.255 77.3679 167.668 76.3856 167.835C75.4033 168.001 74.3948 167.915 73.4548 167.586C72.5149 167.256 71.6745 166.694 71.0126 165.952C70.3507 165.21 69.889 164.313 69.6711 163.344L69.669 163.335L65.1607 142.993C64.9491 142.123 64.946 141.215 65.152 140.343C65.3601 139.462 65.7756 138.642 66.3641 137.953L77.8826 124.21C78.9224 122.97 80.7746 122.804 82.0197 123.84Z" fill="#00B37E"/>
<path fill-rule="evenodd" clip-rule="evenodd" d="M117.762 123.545C119.008 122.511 120.86 122.678 121.899 123.92L133.637 137.954C134.225 138.644 134.64 139.462 134.848 140.343C135.054 141.215 135.05 142.123 134.839 142.994L130.331 163.335L130.329 163.344C130.111 164.313 129.649 165.211 128.987 165.952C128.325 166.694 127.485 167.256 126.545 167.586C125.605 167.915 124.596 168.001 123.614 167.835C122.632 167.669 121.708 167.256 120.93 166.637L109.914 157.856C108.647 156.846 108.442 155.005 109.455 153.743C110.468 152.48 112.317 152.276 113.584 153.286L124.596 162.064L129.11 141.697C129.111 141.694 129.112 141.691 129.112 141.688L117.386 127.667C116.347 126.425 116.516 124.58 117.762 123.545Z" fill="#00B37E"/>
<path d="M99.9995 124.842C102.433 124.842 104.405 122.877 104.405 120.453C104.405 118.028 102.433 116.063 99.9995 116.063C97.5663 116.063 95.5938 118.028 95.5938 120.453C95.5938 122.877 97.5663 124.842 99.9995 124.842Z" fill="#FBA94C"/>
<defs>
<clipPath id="clip0_904_287">
<rect width="44.929" height="44.7662" fill="white" transform="translate(77.3809)"/>
</clipPath>
</defs>
</svg>
